<svg aria-hidden="true" style="position: absolute; width: 0; height: 0; overflow: hidden;" version="1.1" xmlns="http://www.w3.org/2000/svg" xmlns:xlink="http://www.w3.org/1999/xlink">
    <defs>
        <symbol id="user" viewBox="0 0 47 47">
            <path fill="black" style="fill: black;" d="M39.1663 41.125V37.2083C39.1663 35.1308 38.341 33.1384 36.872 31.6693C35.403 30.2003 33.4105 29.375 31.333 29.375H15.6663C13.5888 29.375 11.5964 30.2003 10.1273 31.6693C8.6583 33.1384 7.83301 35.1308 7.83301 37.2083V41.125" stroke="black" stroke-width="4" stroke-linecap="round" stroke-linejoin="round"/>
            <path fill="black" style="fill: black;" d="M23.5003 21.5417C27.8266 21.5417 31.3337 18.0346 31.3337 13.7083C31.3337 9.3821 27.8266 5.875 23.5003 5.875C19.1741 5.875 15.667 9.3821 15.667 13.7083C15.667 18.0346 19.1741 21.5417 23.5003 21.5417Z" stroke="black" stroke-width="4" stroke-linecap="round" stroke-linejoin="round"/>
        </symbol>
    </defs>
    <defs>
        <symbol id="magnifier" viewBox="0 0 24 24">
            <path d="M24,22.586l-6.262-6.262a10.016,10.016,0,1,0-1.414,1.414L22.586,24ZM10,18a8,8,0,1,1,8-8A8.009,8.009,0,0,1,10,18Z"/>
        </symbol>
    </defs>
    <defs>
        <symbol id="bell" viewBox="0 0 24 24">
            <path d="m23.976 17.268-4.125 6.684-1.7-1.051 4.125-6.684zm-16.2-15.5-1.047-1.706-6.735 4.122 1.043 1.705zm12.404 3.466 1.9-1.9-1.412-1.416-1.891 1.891a8.361 8.361 0 0 0 -9.707-.488l-6.762 3.749a2.91 2.91 0 0 0 -.452 4.485l10.584 10.588a2.889 2.889 0 0 0 2.052.857 3.158 3.158 0 0 0 .375-.023 2.879 2.879 0 0 0 2.133-1.398l3.928-6.986a8.444 8.444 0 0 0 -.748-9.359zm-17.18 13.049a4.725 4.725 0 0 0 6.954 4.2l-6.394-6.4a4.712 4.712 0 0 0 -.56 2.2z"/>
        </symbol>
    </defs>
</svg>
