<svg aria-hidden="true" style="position: absolute; width: 0; height: 0; overflow: hidden;" version="1.1" xmlns="http://www.w3.org/2000/svg" xmlns:xlink="http://www.w3.org/1999/xlink">
    <defs>
        <symbol id="user" viewBox="0 0 47 47">
            <path fill="black" style="fill: black;" d="M39.1663 41.125V37.2083C39.1663 35.1308 38.341 33.1384 36.872 31.6693C35.403 30.2003 33.4105 29.375 31.333 29.375H15.6663C13.5888 29.375 11.5964 30.2003 10.1273 31.6693C8.6583 33.1384 7.83301 35.1308 7.83301 37.2083V41.125" stroke="black" stroke-width="4" stroke-linecap="round" stroke-linejoin="round"/>
            <path fill="black" style="fill: black;" d="M23.5003 21.5417C27.8266 21.5417 31.3337 18.0346 31.3337 13.7083C31.3337 9.3821 27.8266 5.875 23.5003 5.875C19.1741 5.875 15.667 9.3821 15.667 13.7083C15.667 18.0346 19.1741 21.5417 23.5003 21.5417Z" stroke="black" stroke-width="4" stroke-linecap="round" stroke-linejoin="round"/>
        </symbol>
    </defs>
    <defs>
        <symbol id="magnifier" viewBox="0 0 24 24">
            <path d="M24,22.586l-6.262-6.262a10.016,10.016,0,1,0-1.414,1.414L22.586,24ZM10,18a8,8,0,1,1,8-8A8.009,8.009,0,0,1,10,18Z"/>
        </symbol>
    </defs>
    <defs>
        <symbol id="bell" viewBox="0 0 24 24">
            <path d="m23.976 17.268-4.125 6.684-1.7-1.051 4.125-6.684zm-16.2-15.5-1.047-1.706-6.735 4.122 1.043 1.705zm12.404 3.466 1.9-1.9-1.412-1.416-1.891 1.891a8.361 8.361 0 0 0 -9.707-.488l-6.762 3.749a2.91 2.91 0 0 0 -.452 4.485l10.584 10.588a2.889 2.889 0 0 0 2.052.857 3.158 3.158 0 0 0 .375-.023 2.879 2.879 0 0 0 2.133-1.398l3.928-6.986a8.444 8.444 0 0 0 -.748-9.359zm-17.18 13.049a4.725 4.725 0 0 0 6.954 4.2l-6.394-6.4a4.712 4.712 0 0 0 -.56 2.2z"/>
        </symbol>
    </defs>
    <defs>
    <symbol id="heart-clik" viewBox="0 0 24 24">
    <path d="M17.5,1.917a6.4,6.4,0,0,0-5.5,3.3,6.4,6.4,0,0,0-5.5-3.3A6.8,6.8,0,0,0,0,8.967c0,4.547,4.786,9.513,8.8,12.88a4.974,4.974,0,0,0,6.4,0C19.214,18.48,24,13.514,24,8.967A6.8,6.8,0,0,0,17.5,1.917Z"/>
    </defs>
    <defs>
    <symbol id="heart-folder" viewBox="0 0 24 24">
    <path d="M19,2h-6.53c-.15,0-.31-.04-.45-.11L8.87,.32c-.41-.21-.88-.32-1.34-.32h-2.53C2.24,0,0,2.24,0,5v12c0,2.76,2.24,5,5,5h5c.55,0,1-.45,1-1s-.45-1-1-1H5c-1.65,0-3-1.35-3-3V8H22v2c0,.55,.45,1,1,1s1-.45,1-1v-3c0-2.76-2.24-5-5-5ZM2,5c0-1.65,1.35-3,3-3h2.53c.15,0,.31,.04,.45,.11l3.16,1.58c.41,.21,.88,.32,1.34,.32h6.53c1.3,0,2.42,.84,2.83,2H2v-1ZM20.5,13c-.95,0-1.84,.42-2.5,1.1-.65-.68-1.54-1.1-2.5-1.1-1.93,0-3.5,1.68-3.5,3.75,0,2.85,3.52,5.89,4.6,6.76,.41,.33,.9,.49,1.4,.49s1-.16,1.4-.49c1.08-.87,4.6-3.91,4.6-6.76,0-2.07-1.57-3.75-3.5-3.75Zm-2.35,8.95c-.09,.07-.21,.07-.3,0-1.85-1.49-3.85-3.75-3.85-5.2,0-.96,.67-1.75,1.5-1.75,.72,0,1.37,.6,1.51,1.4,.08,.48,.5,.83,.98,.83s.9-.35,.98-.83c.14-.8,.8-1.4,1.52-1.4,.83,0,1.5,.79,1.5,1.75,0,1.45-2,3.71-3.85,5.2Z"/>
    </defs>
    
</svg>
